<svg width="50" height="50" viewBox="0 0 50 50" fill="none" xmlns="http://www.w3.org/2000/svg">

 <!-- skills -->
 <g id="codeSvg">
     <path fill-rule="evenodd" clip-rule="evenodd" d="M18.3125 42.0645L27.2623 6.6875L31.4375 7.87241L22.4878 43.3125L18.3125 42.0645Z" fill="#7572D5"/>
     <path fill-rule="evenodd" clip-rule="evenodd" d="M13.5025 12.6875L16.5625 15.9278L7.99501 25.0001L16.5625 34.0721L13.5025 37.3125L1.875 25.0001L13.5025 12.6875Z" fill="#7572D5"/>
     <path fill-rule="evenodd" clip-rule="evenodd" d="M36.4976 12.6875L33.4375 15.9278L42.0051 25.0001L33.4375 34.0721L36.4976 37.3125L48.125 25.0001L36.4976 12.6875Z" fill="#7572D5"/>
 </g>

 <g id="css">
 <path d="M33.0508 8.84371L7.94605 8.83771L8.3515 13.7547L27.6381 13.7577L27.1519 18.8502H14.5035L14.9608 23.6742H26.7358L26.0392 30.2806L20.4969 31.7886L14.8663 30.2701L14.508 26.3134H9.53586L10.0877 33.5411L20.4969 36.7341L30.7309 33.8652L33.0493 8.84521L33.0508 8.84371ZM0.498444 0.568726H40.4984L36.86 40.9999L20.4542 45.5687L4.13993 40.9968L0.498444 0.568726Z" fill="#7572D5"/>
 </g>

 <g id="react">
 <path d="M45.8125 21C45.8125 18.0833 42.6875 15.375 37.4792 13.5L36.5417 13.1875V12.7708C37.6875 7.04164 36.8542 2.7708 34.25 1.2083C31.6458 -0.354197 27.7917 1.10414 23.625 4.74997L23 5.37497L22.7917 5.16664H22.5833C18.3125 1.2083 14.1458 -0.145864 11.5417 1.31247C8.9375 2.7708 8.20833 6.8333 9.25 12.1458C9.35958 12.4838 9.4295 12.8333 9.45833 13.1875L8.3125 13.6041C3.20833 15.375 0.1875 18.0833 0.1875 21C0.1875 23.9166 3.52083 26.8333 8.72917 28.7083L9.45833 28.9166C9.32964 29.2854 9.25935 29.672 9.25 30.0625C8.20833 35.2708 9.14583 39.2291 11.5417 40.6875C13.9375 42.1458 18.3125 40.7916 22.4792 37.1458L23.1042 36.625L23.9375 37.4583C26.8542 39.9583 29.7708 41.3125 32.0625 41.3125C32.8708 41.3309 33.6671 41.1137 34.3542 40.6875C36.9583 39.2291 37.8958 34.9583 36.75 29.5416V29.3333C36.705 29.1619 36.6702 28.988 36.6458 28.8125H36.9583C42.4792 26.8333 45.8125 24.0208 45.8125 21ZM42.7917 21C42.7917 22.25 40.5 24.4375 36.0208 25.8958H35.8125C35.2664 24.2202 34.6051 22.5843 33.8333 21C34.5625 19.3333 35.1875 17.6666 35.7083 16.1041L36.5417 16.3125C40.7083 17.7708 42.7917 19.75 42.7917 21ZM25.9167 35.1666L25.0833 34.5416C26.2761 33.2201 27.3891 31.8287 28.4167 30.375L33.7292 29.5416C33.8333 29.75 33.8333 29.9583 33.9375 30.0625C34.3087 31.9492 34.379 33.8829 34.1458 35.7916C33.9995 36.7045 33.5608 37.5452 32.8958 38.1875C31.8542 38.8125 29.0417 37.9791 25.9167 35.1666ZM24.5625 30.5833L23.1042 32.4583L21.4375 30.5833H24.5625ZM10.2917 16C10.8152 17.7174 11.4771 19.3895 12.2708 21C11.4765 22.646 10.8146 24.3528 10.2917 26.1041L9.66667 25.8958C7.84256 25.3201 6.1454 24.4008 4.66667 23.1875C4.28377 22.9455 3.95605 22.6257 3.7048 22.2488C3.45356 21.872 3.2844 21.4465 3.20833 21C3.20833 19.75 5.29167 17.7708 9.25 16.4166L10.2917 16ZM21.4375 11.4166L23 9.6458L24.5625 11.4166H21.4375ZM32.8958 3.81247C34.0417 4.43747 34.6667 7.56247 33.7292 12.1458C33.734 12.2022 33.7272 12.2591 33.7093 12.3128C33.6914 12.3665 33.6627 12.416 33.625 12.4583L28.4167 11.625C27.3891 10.1712 26.2761 8.77988 25.0833 7.4583L25.7083 6.93747C29.0417 4.0208 31.75 3.18747 32.8958 3.81247ZM15.5 14.8541L14.6667 16.2083L13.9375 17.5625C13.625 16.8333 13.4167 16.1041 13.1042 15.2708L15.5 14.8541ZM13.1042 26.7291C13.4167 26 13.625 25.2708 13.9375 24.4375L14.6667 25.7916L15.5 27.1458L13.1042 26.7291ZM30.5 21C29.9699 22.142 29.3788 23.2548 28.7292 24.3333C28.1042 25.4791 27.375 26.5208 26.75 27.5625H19.25C18.5208 26.4166 17.7917 25.375 17.2708 24.3333C16.6161 23.2577 16.0248 22.1447 15.5 21C16.0054 19.8458 16.5974 18.7315 17.2708 17.6666C17.8693 16.5874 18.5301 15.544 19.25 14.5416C21.7457 14.3334 24.2543 14.3334 26.75 14.5416C27.4792 15.5833 28.1042 16.625 28.7292 17.6666C29.4026 18.7315 29.9946 19.8458 30.5 21ZM31.3333 16.2083L30.5 14.8541L32.8958 15.375C32.6639 16.1208 32.3856 16.8514 32.0625 17.5625L31.3333 16.2083ZM30.5 27.1458L31.3333 25.7916L32.0625 24.3333L33 26.7291L30.5 27.1458ZM20.8125 7.35414H20.9167L17.5833 11.5208L12.375 12.3541C12.2708 12.0416 12.2708 11.8333 12.1667 11.5208C11.3333 7.24997 11.9583 4.3333 13 3.81247C13.2766 3.63082 13.61 3.55672 13.9375 3.60414C15.3958 3.60414 17.8958 4.6458 20.7083 7.1458L20.8125 7.35414ZM12.1667 30.5833C12.1857 30.2617 12.256 29.9452 12.375 29.6458L17.6875 30.375C18.689 31.8481 19.8034 33.2412 21.0208 34.5416L20.8125 34.75L20.6042 34.9583C19.184 36.2738 17.5211 37.2999 15.7083 37.9791C15.3107 38.1874 14.875 38.3133 14.4275 38.3491C13.98 38.3849 13.5299 38.3299 13.1042 38.1875C11.9583 37.5625 11.3333 34.75 12.1667 30.5833Z" fill="#7572D5"/>
 </g>

 <g id="typeScript">
 <path d="M0 20V40H40V0H0V20ZM32.235 18.4067C33.2517 18.66 34.025 19.1117 34.7367 19.8483C35.105 20.2417 35.6517 20.9583 35.695 21.1317C35.7083 21.1817 33.9683 22.3483 32.915 23.0033C32.8767 23.0283 32.7233 22.8633 32.5533 22.61C32.0367 21.86 31.4983 21.5367 30.6733 21.48C29.46 21.3967 28.68 22.0317 28.6867 23.0917C28.6756 23.3523 28.7343 23.6112 28.8567 23.8417C29.1233 24.3933 29.62 24.725 31.1733 25.3967C34.0383 26.63 35.2633 27.4417 36.025 28.5967C36.875 29.885 37.0667 31.9433 36.4883 33.4733C35.855 35.1367 34.28 36.2667 32.0633 36.64C31.3783 36.7617 29.7533 36.7433 29.0167 36.61C27.41 36.3233 25.8867 35.53 24.9467 34.4883C24.5783 34.0833 23.86 33.0217 23.905 32.9467C23.9233 32.92 24.0883 32.8183 24.2717 32.7117C24.4517 32.61 25.1233 32.2217 25.7583 31.8533L26.9083 31.1867L27.15 31.5433C27.4867 32.0567 28.2217 32.7617 28.6667 32.9967C29.9433 33.67 31.695 33.575 32.5583 32.8C32.7319 32.6538 32.8694 32.4693 32.9599 32.2612C33.0504 32.053 33.0915 31.8267 33.08 31.6C33.08 31.1367 33.0217 30.9333 32.78 30.5833C32.47 30.14 31.835 29.7667 30.0317 28.9833C27.9683 28.095 27.08 27.5433 26.2667 26.6667C25.759 26.0881 25.3841 25.4055 25.1683 24.6667C25.0167 24.1017 24.9783 22.685 25.0983 22.115C25.5233 20.12 27.0283 18.7317 29.2 18.3183C29.905 18.185 31.5433 18.235 32.235 18.4067ZM22.845 20.0767L22.8583 21.715H17.65V36.5083H13.9667V21.715H8.76333V20.1083C8.76333 19.2183 8.78167 18.475 8.80667 18.4583C8.82667 18.4317 11.995 18.4183 15.835 18.425L22.8267 18.445L22.845 20.0767Z" fill="#7572D5"/>
 </g>

 <g id="styled">
 <path d="M31.2591 0.25L30.9888 1.64963C30.5708 4.30212 30.7221 5.06099 31.8682 6.04539L32.9747 6.95461L31.8286 12.0305C31.1438 15.0588 30.3041 17.5968 29.7707 18.4308C29.313 19.1503 28.7796 20.2099 28.6642 20.7791C28.4732 21.4592 27.8245 22.1429 26.8334 22.7478C25.9576 23.2418 24.2385 24.5663 23.0203 25.6294C22.0472 26.4993 21.3769 27.0326 21.0129 27.2617L19.8235 28.196C19.4415 28.8046 19.2253 29.295 19.1424 29.6672C19.0595 30.0503 19.1063 30.3044 19.2289 30.4905C19.3478 30.6695 19.5532 30.7948 19.8343 30.8736C20.1671 30.951 20.5097 30.9788 20.8507 30.9559C21.6222 30.9035 22.3858 30.7691 23.1284 30.555C23.3807 30.487 23.5789 30.4225 23.7519 30.3653C24.0186 30.0395 24.6349 29.4238 25.7269 28.3535C28.6246 25.5149 29.731 23.9613 28.5885 24.3802C28.1669 24.5305 28.3579 24.1511 29.0823 23.3922C30.6104 21.9138 31.4862 19.6801 33.317 12.6748C34.7659 7.14433 34.7659 7.06558 35.8327 7.06558C36.3336 7.06558 37.75 7.15149 37.75 7.15149V0.25H34.4992H31.2591ZM18.4216 12.0806C17.3692 12.0735 15.1058 13.6664 8.33025 19.1611C8.03832 19.8519 8.01309 20.328 8.14644 20.6359C8.23294 20.8471 8.39152 20.9938 8.61137 21.1012C8.82761 21.2086 9.10873 21.2731 9.41867 21.2981C10.035 21.3518 10.763 21.2552 11.3504 21.1406L11.7469 21.0511C11.8826 20.8704 12.0608 20.7254 12.2659 20.6287C12.6839 20.3996 14.4391 18.8103 16.1943 17.1064C19.2829 13.9993 20.0073 12.5961 18.7495 12.1415C18.6463 12.1007 18.5326 12.08 18.4216 12.0806ZM26.336 14.2391C25.4098 14.2642 23.7411 15.3309 20.8831 17.5968C19.4487 18.753 18.5405 19.3759 18.0539 19.5047L16.1654 20.9867C15.4554 22.2753 15.3509 23.0736 15.5383 23.5139C15.5852 23.6225 15.6533 23.7208 15.7387 23.8031C15.8241 23.8855 15.925 23.9502 16.0357 23.9936C16.311 24.1015 16.6046 24.1562 16.9006 24.1546C17.608 24.1471 18.3112 24.0448 18.991 23.8504C19.3453 23.7559 19.6952 23.6461 20.0398 23.521L20.1443 23.4781L20.3353 23.3779C20.6957 22.9161 21.5246 22.0462 22.5626 21.044C25.8423 17.9011 27.5181 15.6674 27.1758 14.8333C27.0208 14.4288 26.7541 14.2248 26.336 14.2391ZM17.5998 18.1051C17.3331 18.1337 16.7349 18.5919 15.6573 19.5298C14.1003 20.8972 12.4028 21.6847 11.8154 21.3339C11.6788 21.3645 11.5419 21.3932 11.4045 21.4198C10.8062 21.5379 10.0602 21.6346 9.39344 21.5809C9.07929 21.562 8.77137 21.4855 8.48523 21.3554C8.21533 21.2328 7.99994 21.0164 7.87975 20.7468C7.7464 20.4247 7.7464 20.0238 7.89777 19.5119L5.55514 21.4234L0.253605 25.7798V32.8424L17.6251 19.2506C17.6217 19.1018 17.6411 18.9533 17.6827 18.8103C17.8161 18.3306 17.8089 18.0872 17.5998 18.1087V18.1051ZM25.0746 20.3925C24.8115 20.3925 24.3718 20.7612 23.669 21.5021C22.714 22.5152 21.2111 23.496 20.4146 23.6964L20.292 23.7609C20.1613 23.8145 20.0291 23.8646 19.8956 23.9112C19.6794 23.9828 19.3982 24.0687 19.0739 24.1546C18.4252 24.33 17.6179 24.4911 16.897 24.4732C16.5572 24.4728 16.2207 24.4072 15.9059 24.2799C15.6093 24.1585 15.3716 23.9275 15.2428 23.6356C15.0338 23.138 15.1167 22.44 15.5744 21.4485L0.25 33.4366V37.75H6.98234L21.2615 26.6103C21.6327 26.2022 22.1914 25.6438 22.9446 24.9457C24.9629 23.0879 25.4206 22.4472 25.4206 21.4986C25.4206 20.7612 25.3377 20.3889 25.0746 20.3889V20.3925ZM28.4732 27.3727L27.2514 28.5826C26.5667 29.2269 25.3449 30.0216 24.5088 30.3617L24.343 30.4333L24.3322 30.4512L24.2961 30.487C24.2637 30.512 24.2493 30.5156 24.2241 30.5263C23.8903 30.6518 23.5512 30.7629 23.2077 30.8592C22.4441 31.08 21.6586 31.218 20.8651 31.2709C20.4899 31.2948 20.1132 31.2622 19.7478 31.1743C19.4307 31.1049 19.1508 30.9213 18.9622 30.6588C18.7892 30.3939 18.7387 30.0395 18.836 29.6028C18.9134 29.2919 19.0284 28.9914 19.1784 28.7079L7.6563 37.75H22.9807L24.8115 35.6667C27.3271 32.7529 28.4732 30.6695 28.4732 28.8869V27.3727Z" fill="#7572D5"/>
 </g>

 <g id="web">
 <path d="M17.7083 4.16663C14.2565 4.16663 11.4583 6.96486 11.4583 10.4166C11.4583 13.8684 14.2565 16.6666 17.7083 16.6666H32.2916C35.7435 16.6666 38.5416 13.8684 38.5416 10.4166C38.5416 6.96486 35.7435 4.16663 32.2916 4.16663H17.7083Z" fill="#7572D5"/>
 <path d="M32.2917 18.75C28.8398 18.75 26.0417 21.5481 26.0417 25C26.0417 28.4519 28.8398 31.25 32.2917 31.25C35.7436 31.25 38.5417 28.4519 38.5417 25C38.5417 21.5481 35.7436 18.75 32.2917 18.75Z" fill="#7572D5"/>
 <path d="M11.4583 25C11.4583 21.5481 14.2565 18.75 17.7083 18.75H23.9583V31.25H17.7083C14.2565 31.25 11.4583 28.4519 11.4583 25Z" fill="#7572D5"/>
 <path d="M17.7083 33.3334C14.2565 33.3334 11.4583 36.1315 11.4583 39.5834C11.4583 43.0352 14.2565 45.8334 17.7083 45.8334C21.1602 45.8334 23.9583 43.0352 23.9583 39.5834V33.3334H17.7083Z" fill="#7572D5"/>
 </g>

<!-- цитата (quote) -->

<g id="quote">
    <path d="M13.5417 20.8333C13.0771 20.8333 12.6312 20.9042 12.1875 20.9688C12.3312 20.4854 12.4792 19.9938 12.7167 19.5521C12.9542 18.9104 13.325 18.3542 13.6937 17.7938C14.0021 17.1875 14.5458 16.7771 14.9458 16.2583C15.3646 15.7542 15.9354 15.4188 16.3875 15C16.8312 14.5625 17.4125 14.3438 17.875 14.0354C18.3583 13.7583 18.7792 13.4521 19.2292 13.3063L20.3521 12.8438L21.3396 12.4333L20.3292 8.39584L19.0854 8.69584C18.6875 8.79584 18.2021 8.9125 17.65 9.05209C17.0854 9.15625 16.4833 9.44167 15.8125 9.70209C15.15 9.99792 14.3833 10.1979 13.6708 10.6729C12.9542 11.1271 12.1271 11.5063 11.3979 12.1146C10.6917 12.7417 9.83958 13.2854 9.21041 14.0833C8.52291 14.8292 7.84375 15.6125 7.31666 16.5042C6.70625 17.3542 6.29166 18.2875 5.85416 19.2104C5.45833 20.1333 5.13958 21.0771 4.87916 21.9938C4.38541 23.8313 4.16458 25.5771 4.07916 27.0708C4.00833 28.5667 4.05 29.8104 4.1375 30.7104C4.16875 31.1354 4.22708 31.5479 4.26875 31.8333L4.32083 32.1833L4.375 32.1708C4.74554 33.9017 5.59855 35.4924 6.83534 36.7587C8.07213 38.0251 9.64217 38.9154 11.3638 39.3267C13.0855 39.738 14.8884 39.6535 16.5641 39.083C18.2397 38.5124 19.7196 37.4792 20.8325 36.1027C21.9454 34.7262 22.6459 33.0628 22.853 31.3048C23.06 29.5468 22.7651 27.7662 22.0024 26.1688C21.2396 24.5714 20.0403 23.2226 18.543 22.2784C17.0458 21.3342 15.3118 20.8332 13.5417 20.8333ZM36.4583 20.8333C35.9937 20.8333 35.5479 20.9042 35.1042 20.9688C35.2479 20.4854 35.3958 19.9938 35.6333 19.5521C35.8708 18.9104 36.2417 18.3542 36.6104 17.7938C36.9188 17.1875 37.4625 16.7771 37.8625 16.2583C38.2812 15.7542 38.8521 15.4188 39.3042 15C39.7479 14.5625 40.3292 14.3438 40.7917 14.0354C41.275 13.7583 41.6958 13.4521 42.1458 13.3063L43.2687 12.8438L44.2562 12.4333L43.2458 8.39584L42.0021 8.69584C41.6042 8.79584 41.1187 8.9125 40.5667 9.05209C40.0021 9.15625 39.4 9.44167 38.7292 9.70209C38.0688 10 37.3 10.1979 36.5875 10.675C35.8708 11.1292 35.0438 11.5083 34.3146 12.1167C33.6083 12.7438 32.7562 13.2875 32.1271 14.0833C31.4396 14.8292 30.7604 15.6125 30.2333 16.5042C29.6229 17.3542 29.2083 18.2875 28.7708 19.2104C28.375 20.1333 28.0562 21.0771 27.7958 21.9938C27.3021 23.8313 27.0812 25.5771 26.9958 27.0708C26.925 28.5667 26.9667 29.8104 27.0542 30.7104C27.0854 31.1354 27.1437 31.5479 27.1854 31.8333L27.2375 32.1833L27.2917 32.1708C27.6622 33.9017 28.5152 35.4924 29.752 36.7587C30.9888 38.0251 32.5588 38.9154 34.2805 39.3267C36.0022 39.738 37.8051 39.6535 39.4807 39.083C41.1564 38.5124 42.6363 37.4792 43.7492 36.1027C44.8621 34.7262 45.5626 33.0628 45.7696 31.3048C45.9766 29.5468 45.6817 27.7662 44.919 26.1688C44.1563 24.5714 42.957 23.2226 41.4597 22.2784C39.9624 21.3342 38.2284 20.8332 36.4583 20.8333Z" fill="#7572D5"/>
</g>

<!-- social -->

<g id="instagram">
    <path d="M13.6516 0.0999756H3.34844C1.55687 0.0999756 0.0999985 1.55628 0.0999985 3.34715V6.77799V13.6528C0.0999985 15.4437 1.55687 16.9 3.34844 16.9H13.6516C15.4431 16.9 16.9 15.4437 16.9 13.6528V6.77143V3.34058C16.8934 1.55628 15.4366 0.0999756 13.6516 0.0999756ZM14.5834 2.03516H14.9575V2.40251V4.88217L12.1159 4.88873L12.1094 2.04172L14.5834 2.03516ZM6.09812 6.77143C6.63625 6.03016 7.50906 5.53816 8.49343 5.53816C9.47781 5.53816 10.3506 6.0236 10.8887 6.77143C11.2431 7.25687 11.4466 7.85382 11.4466 8.4967C11.4466 10.1236 10.1209 11.4552 8.48687 11.4552C6.85281 11.4552 5.54031 10.1236 5.54031 8.4967C5.54031 7.85382 5.75031 7.25687 6.09812 6.77143ZM15.2594 13.6462C15.2594 14.5318 14.5375 15.2534 13.6516 15.2534H3.34844C2.4625 15.2534 1.74062 14.5318 1.74062 13.6462V6.77143H4.2475C4.03094 7.30279 3.90625 7.88662 3.90625 8.4967C3.90625 11.0288 5.96687 13.0887 8.5 13.0887C11.0331 13.0887 13.0937 11.0288 13.0937 8.4967C13.0937 7.88662 12.9691 7.30279 12.7525 6.77143H15.2594V13.6462Z" fill="currentColor"/>
</g >

<g id="telegram">
    <path d="M16.9057 1.76449L14.3705 13.7208C14.1791 14.5644 13.6804 14.7745 12.9717 14.3772L9.10852 11.5305L7.24472 13.3235C7.0383 13.5299 6.86608 13.7022 6.46824 13.7022L6.74607 9.76814L13.9054 3.29885C14.2169 3.02162 13.8376 2.86741 13.4218 3.14524L4.57084 8.71863L0.760432 7.5257C-0.0682556 7.26707 -0.0832572 6.69701 0.933251 6.29917L15.837 0.557163C16.5271 0.298535 17.1308 0.710179 16.9057 1.76449Z" fill="currentColor"/>
    </g>

<g id="vk">
    <path d="M17.16 12.99C16.8 12.53 16.38 12.13 15.98 11.73C15.84 11.59 15.69 11.45 15.55 11.3C15.14 10.89 15.12 10.73 15.45 10.26C15.67 9.94 15.91 9.61 16.14 9.3C16.35 9.01 16.56 8.72 16.77 8.42L16.81 8.36C17.21 7.8 17.61 7.21 17.83 6.51C17.89 6.32 17.95 6.04 17.81 5.82C17.68 5.59 17.41 5.52 17.23 5.48C17.14 5.47 17.05 5.47 16.96 5.47L14.38 5.46L14.35 5.46C13.96 5.46 13.7 5.65 13.55 6.05C13.41 6.42 13.25 6.82 13.07 7.2C12.71 7.96 12.25 8.83 11.59 9.56L11.56 9.59C11.48 9.67 11.4 9.77 11.33 9.77C11.32 9.77 11.31 9.77 11.3 9.77C11.16 9.71 11.07 9.37 11.07 9.21C11.07 9.21 11.07 9.2 11.07 9.2L11.07 6.11C11.07 6.09 11.07 6.08 11.07 6.07C11 5.57 10.86 5.26 10.31 5.15C10.29 5.14 10.28 5.14 10.26 5.14L7.58 5.14C7.14 5.14 6.9 5.33 6.67 5.6C6.61 5.68 6.48 5.83 6.54 6.02C6.61 6.2 6.82 6.24 6.88 6.26C7.22 6.32 7.41 6.54 7.46 6.91C7.56 7.56 7.57 8.25 7.5 9.08C7.48 9.31 7.44 9.49 7.38 9.65C7.37 9.68 7.31 9.8 7.26 9.8C7.24 9.8 7.2 9.79 7.11 9.73C6.9 9.58 6.75 9.37 6.57 9.11C5.96 8.22 5.46 7.25 5.02 6.12C4.85 5.71 4.55 5.48 4.16 5.47C3.73 5.47 3.34 5.46 2.97 5.46C2.56 5.46 2.19 5.47 1.82 5.47C1.51 5.48 1.29 5.58 1.18 5.77C1.06 5.95 1.07 6.2 1.2 6.5C2.23 8.88 3.17 10.61 4.24 12.11C4.99 13.16 5.74 13.89 6.6 14.4C7.51 14.94 8.53 15.2 9.72 15.2C9.85 15.2 9.99 15.2 10.13 15.19C10.82 15.16 11.08 14.9 11.11 14.2C11.13 13.85 11.16 13.47 11.33 13.16C11.44 12.96 11.54 12.96 11.57 12.96C11.63 12.96 11.71 12.99 11.8 13.04C11.95 13.14 12.08 13.28 12.18 13.4C12.28 13.51 12.38 13.63 12.48 13.74C12.69 13.99 12.91 14.24 13.14 14.48C13.64 15.01 14.19 15.24 14.83 15.19L17.2 15.19C17.2 15.19 17.21 15.19 17.21 15.19C17.45 15.18 17.65 15.04 17.77 14.82C17.92 14.55 17.92 14.2 17.77 13.89C17.59 13.54 17.36 13.24 17.16 12.99Z" fill="currentColor" fill-opacity="currentColor" fill-rule="currentColor"/>
</g>

<g id="linkedin">
   <path d="M-0.47 4.88L2.8 4.88L2.8 15.36L-0.47 15.36L-0.47 4.88Z" fill="currentColor" fill-opacity="currentColor" fill-rule="evenodd"/>
   	<path id="Vector" d="M1.1 -0.06C-0.11 -0.06 -0.91 0.72 -0.91 1.75C-0.91 2.77 -0.14 3.57 1.05 3.57L1.08 3.57C2.31 3.57 3.08 2.76 3.07 1.75C3.04 0.72 2.3 -0.06 1.1 -0.06Z" fill="currentColor" fill-opacity="currentColor" fill-rule="currentColor"/>
   	<path id="Vector" d="M11.74 4.78C9.87 4.78 8.69 5.81 8.48 6.53L8.48 4.88L4.8 4.88C4.84 5.75 4.8 15.36 4.8 15.36L8.48 15.36L8.48 9.7C8.48 9.38 8.46 9.06 8.55 8.84C8.8 8.21 9.35 7.55 10.33 7.55C11.6 7.55 12.18 8.52 12.18 9.94L12.18 15.36L15.9 15.36L15.9 9.53C15.9 6.29 14.07 4.78 11.74 4.78Z" fill="currentColor" fill-opacity="currentColor" fill-rule="currentColor"/>
</g>


<!-- guote(ковычки) -->
<g id="guote">
<path d="M13.5417 20.8333C13.0771 20.8333 12.6312 20.9042 12.1875 20.9688C12.3312 20.4854 12.4792 19.9938 12.7167 19.5521C12.9542 18.9104 13.325 18.3542 13.6937 17.7938C14.0021 17.1875 14.5458 16.7771 14.9458 16.2583C15.3646 15.7542 15.9354 15.4188 16.3875 15C16.8312 14.5625 17.4125 14.3438 17.875 14.0354C18.3583 13.7583 18.7792 13.4521 19.2292 13.3063L20.3521 12.8438L21.3396 12.4333L20.3292 8.39584L19.0854 8.69584C18.6875 8.79584 18.2021 8.9125 17.65 9.05209C17.0854 9.15625 16.4833 9.44167 15.8125 9.70209C15.15 9.99792 14.3833 10.1979 13.6708 10.6729C12.9542 11.1271 12.1271 11.5063 11.3979 12.1146C10.6917 12.7417 9.83958 13.2854 9.21041 14.0833C8.52291 14.8292 7.84375 15.6125 7.31666 16.5042C6.70625 17.3542 6.29166 18.2875 5.85416 19.2104C5.45833 20.1333 5.13958 21.0771 4.87916 21.9938C4.38541 23.8313 4.16458 25.5771 4.07916 27.0708C4.00833 28.5667 4.05 29.8104 4.1375 30.7104C4.16875 31.1354 4.22708 31.5479 4.26875 31.8333L4.32083 32.1833L4.375 32.1708C4.74554 33.9017 5.59855 35.4924 6.83534 36.7587C8.07213 38.0251 9.64217 38.9154 11.3638 39.3267C13.0855 39.738 14.8884 39.6535 16.5641 39.083C18.2397 38.5124 19.7196 37.4792 20.8325 36.1027C21.9454 34.7262 22.6459 33.0628 22.853 31.3048C23.06 29.5468 22.7651 27.7662 22.0024 26.1688C21.2396 24.5714 20.0403 23.2226 18.543 22.2784C17.0458 21.3342 15.3118 20.8332 13.5417 20.8333ZM36.4583 20.8333C35.9937 20.8333 35.5479 20.9042 35.1042 20.9688C35.2479 20.4854 35.3958 19.9938 35.6333 19.5521C35.8708 18.9104 36.2417 18.3542 36.6104 17.7938C36.9188 17.1875 37.4625 16.7771 37.8625 16.2583C38.2812 15.7542 38.8521 15.4188 39.3042 15C39.7479 14.5625 40.3292 14.3438 40.7917 14.0354C41.275 13.7583 41.6958 13.4521 42.1458 13.3063L43.2687 12.8438L44.2562 12.4333L43.2458 8.39584L42.0021 8.69584C41.6042 8.79584 41.1187 8.9125 40.5667 9.05209C40.0021 9.15625 39.4 9.44167 38.7292 9.70209C38.0688 10 37.3 10.1979 36.5875 10.675C35.8708 11.1292 35.0438 11.5083 34.3146 12.1167C33.6083 12.7438 32.7562 13.2875 32.1271 14.0833C31.4396 14.8292 30.7604 15.6125 30.2333 16.5042C29.6229 17.3542 29.2083 18.2875 28.7708 19.2104C28.375 20.1333 28.0562 21.0771 27.7958 21.9938C27.3021 23.8313 27.0812 25.5771 26.9958 27.0708C26.925 28.5667 26.9667 29.8104 27.0542 30.7104C27.0854 31.1354 27.1437 31.5479 27.1854 31.8333L27.2375 32.1833L27.2917 32.1708C27.6622 33.9017 28.5152 35.4924 29.752 36.7587C30.9888 38.0251 32.5588 38.9154 34.2805 39.3267C36.0022 39.738 37.8051 39.6535 39.4807 39.083C41.1564 38.5124 42.6363 37.4792 43.7492 36.1027C44.8621 34.7262 45.5626 33.0628 45.7696 31.3048C45.9766 29.5468 45.6817 27.7662 44.919 26.1688C44.1563 24.5714 42.957 23.2226 41.4597 22.2784C39.9624 21.3342 38.2284 20.8332 36.4583 20.8333Z" fill="currentColor"/>
</g>




</svg>
